<?xml version="1.0" standalone="no"?>
<!DOCTYPE svg PUBLIC "-//W3C//DTD SVG 20010904//EN"
 "http://www.w3.org/TR/2001/REC-SVG-20010904/DTD/svg10.dtd">
<svg version="1.0" xmlns="http://www.w3.org/2000/svg"
 width="400.000000pt" height="400.000000pt" viewBox="0 0 400.000000 400.000000"
 preserveAspectRatio="xMidYMid meet">
<metadata>
Created by potrace 1.11, written by Peter Selinger 2001-2013
</metadata>
<g transform="translate(0.000000,400.000000) scale(0.100000,-0.100000)"
fill="#000000" stroke="none">
<path d="M166 3065 c-16 -8 -31 -13 -34 -11 -2 3 -18 -8 -36 -24 -17 -17 -34
-30 -38 -30 -5 0 -8 -6 -8 -14 0 -8 -7 -22 -16 -30 -8 -9 -20 -31 -25 -48 -15
-53 -7 -1571 8 -1590 7 -8 10 -17 7 -20 -3 -3 17 -28 44 -56 39 -40 62 -54
108 -68 57 -16 110 -21 121 -10 3 3 7 29 10 58 6 88 21 140 59 199 26 42 113
129 129 129 6 0 22 8 35 17 23 16 32 20 70 27 8 2 23 7 33 11 30 13 179 0 216
-18 19 -9 38 -17 43 -17 5 0 28 -15 51 -32 121 -95 164 -177 171 -323 1 -27 5
-48 8 -45 3 3 12 -1 21 -9 10 -7 17 -9 17 -4 0 5 7 10 15 10 8 0 15 -5 15 -10
0 -5 8 -3 17 4 14 12 15 12 9 1 -7 -11 -4 -12 13 -3 15 8 21 9 21 1 0 -6 5 -8
13 -3 17 11 41 10 50 -2 5 -7 10 -7 15 0 10 15 32 17 46 5 7 -5 16 -7 20 -3
11 11 36 12 36 1 0 -6 7 -4 17 3 14 12 15 12 9 1 -7 -11 -4 -12 13 -3 15 8 21
9 21 1 0 -6 5 -8 13 -3 17 11 41 10 50 -2 4 -7 10 -6 15 1 4 5 23 9 42 7 19
-2 46 -3 60 -2 14 0 32 0 40 0 8 -1 26 -1 40 0 14 0 32 0 40 0 8 -1 26 -1 40
0 27 1 29 1 75 -4 17 -1 38 1 48 6 10 5 17 4 17 -3 0 -6 5 -8 12 -3 18 11 42
10 51 -2 4 -7 9 -7 15 0 10 15 32 17 46 5 7 -5 16 -7 20 -3 11 11 36 12 36 1
0 -6 7 -4 17 3 14 12 15 12 9 1 -7 -11 -4 -12 13 -3 15 8 21 9 21 1 0 -6 5 -8
13 -3 17 11 41 10 50 -2 4 -7 9 -7 15 0 10 15 32 17 46 5 7 -5 16 -7 20 -3 11
11 36 12 36 1 0 -6 7 -4 17 3 14 12 15 12 9 1 -7 -11 -4 -12 13 -3 15 8 21 9
21 1 0 -6 5 -8 13 -3 17 11 41 10 50 -2 4 -7 10 -7 15 0 8 12 27 13 37 3 4 -4
16 -3 26 3 13 7 19 6 19 -1 0 -6 5 -8 13 -3 17 11 41 10 50 -2 5 -7 10 -7 15
0 10 15 32 17 46 5 7 -5 16 -7 20 -3 11 11 36 12 36 1 0 -6 7 -4 17 3 14 12
15 12 9 1 -7 -11 -4 -12 13 -3 15 8 21 9 21 1 0 -6 5 -8 13 -3 17 11 41 10 50
-2 5 -7 10 -7 15 0 11 15 32 17 47 5 9 -7 15 -8 19 -1 4 6 13 8 21 4 12 -4 15
6 16 48 0 30 2 61 4 69 2 8 6 24 9 35 11 48 96 198 96 171 0 -5 9 3 21 18 11
14 27 26 35 26 8 0 14 5 14 11 0 10 68 44 83 41 4 -1 7 2 7 7 0 6 9 8 20 6 11
-2 20 0 20 5 0 12 182 10 197 -2 7 -5 16 -7 22 -4 5 4 16 -1 24 -9 9 -8 21
-15 27 -15 17 0 100 -59 100 -71 0 -6 5 -7 10 -4 6 3 10 -1 10 -9 0 -9 4 -16
10 -16 9 0 73 -103 76 -122 1 -5 2 -9 4 -10 4 -6 10 -44 13 -75 1 -18 5 -33 8
-33 3 0 4 -11 1 -25 -2 -15 0 -25 7 -25 6 0 11 4 11 10 0 5 3 9 8 8 14 -3 61
25 56 33 -3 5 -1 9 5 9 15 0 64 87 56 100 -3 5 -1 10 5 10 13 0 9 318 -5 340
-5 8 -10 21 -11 27 -3 20 -47 113 -53 113 -4 0 -12 13 -19 30 -21 47 -282 301
-282 274 0 -4 -8 3 -19 14 -10 12 -24 22 -30 22 -6 0 -14 7 -17 15 -4 8 -10
12 -15 9 -5 -3 -9 0 -9 5 0 6 -7 11 -15 11 -8 0 -15 3 -15 8 0 4 -18 18 -40
32 -22 14 -40 28 -40 32 0 4 -8 9 -17 12 -10 4 -35 21 -55 39 -20 17 -50 42
-66 55 -17 13 -45 36 -64 52 -18 16 -37 30 -41 30 -4 0 -21 13 -37 30 -16 17
-33 30 -37 30 -4 0 -22 14 -40 30 -18 17 -37 30 -42 30 -6 0 -11 8 -11 17 0 9
-3 13 -6 10 -6 -6 -105 69 -112 86 -2 4 -9 7 -16 7 -6 0 -19 8 -27 18 -9 9
-29 26 -44 37 -16 11 -34 26 -41 33 -7 6 -15 12 -19 12 -3 0 -16 9 -28 21 -26
24 -193 139 -202 139 -3 0 -13 7 -22 15 -8 8 -19 13 -24 10 -5 -4 -9 -1 -9 5
0 6 -4 8 -10 5 -5 -3 -10 -2 -10 3 0 7 -81 37 -160 59 -14 4 -488 9 -1055 10
-909 3 -1033 1 -1059 -12z m2368 -401 c4 -10 -235 -13 -1235 -14 -1035 0
-1239 2 -1239 13 0 20 2467 20 2474 1z m86 -104 c8 5 18 6 24 3 17 -11 126 -9
126 2 0 6 3 7 8 0 4 -5 21 -11 37 -12 17 -1 41 -6 55 -11 14 -5 27 -9 30 -8 7
1 94 -66 98 -76 2 -5 8 -8 13 -8 6 0 24 -13 42 -30 18 -16 38 -30 45 -30 6 0
12 -3 12 -7 0 -5 29 -28 64 -53 61 -43 116 -105 120 -135 1 -8 5 -18 9 -21 8
-9 9 -190 1 -221 -8 -29 -54 -47 -96 -37 -18 4 -42 8 -53 10 -11 1 -20 3 -20
4 0 1 -11 4 -25 6 -30 5 -65 12 -65 14 0 1 -11 3 -25 5 -27 4 -59 10 -100 20
-54 13 -76 17 -95 19 -11 1 -29 5 -40 9 -11 4 -36 9 -55 12 -19 3 -46 8 -60
10 -14 3 -34 7 -45 9 -63 10 -109 32 -133 64 -26 35 -27 38 -28 200 -1 204 4
224 65 251 29 12 51 16 61 11 9 -5 22 -5 30 0z m-2509 -24 c1 -6 1 -14 0 -18
0 -5 3 -8 9 -8 6 0 6 -9 1 -23 -5 -13 -6 -30 -1 -37 4 -7 4 -26 0 -41 -5 -17
-5 -31 1 -35 6 -4 6 -11 -2 -20 -7 -9 -8 -14 -1 -14 6 0 9 -8 7 -17 -2 -10 -4
-18 -5 -18 -1 0 -3 -12 -4 -27 -1 -16 2 -28 7 -28 5 0 4 -6 -2 -13 -6 -8 -8
-17 -4 -21 10 -10 -17 -26 -43 -26 -15 0 -24 8 -28 25 -4 14 -4 30 -1 35 3 5
1 11 -5 15 -7 4 -6 13 1 27 9 16 8 19 -2 13 -8 -6 -10 -4 -4 4 9 16 13 71 5
76 -5 3 -5 50 0 50 0 0 2 24 3 53 2 31 8 56 16 61 17 11 51 2 52 -13z m1971
11 c24 -4 58 -46 59 -71 0 -31 -2 -339 -3 -353 -1 -7 -5 -13 -10 -13 -4 0 -8
-8 -8 -17 0 -9 -3 -13 -7 -10 -3 4 -11 3 -17 -2 -16 -13 -106 -20 -106 -8 0 5
-7 4 -15 -3 -12 -10 -15 -10 -16 1 0 8 -2 10 -5 4 -6 -15 -230 -10 -259 5 -33
18 -38 50 -38 247 1 170 1 172 26 197 25 25 30 26 169 28 141 3 197 2 230 -5z
m224 -77 c-1 -34 3 -60 9 -60 7 0 7 -3 0 -8 -5 -4 -10 -20 -10 -37 0 -16 5
-33 10 -37 6 -5 4 -12 -5 -18 -13 -9 -13 -10 0 -10 13 0 13 -1 0 -11 -11 -8
-12 -12 -2 -16 6 -2 9 -10 5 -15 -10 -18 -9 -168 2 -168 7 0 7 -3 0 -8 -5 -4
-10 -20 -10 -37 0 -16 5 -33 10 -37 6 -5 4 -12 -5 -18 -13 -9 -13 -10 0 -10
13 0 13 -1 0 -11 -11 -8 -12 -12 -2 -16 6 -2 9 -10 5 -15 -10 -18 -9 -168 2
-168 7 0 7 -3 0 -8 -5 -4 -10 -20 -10 -37 0 -16 5 -33 10 -37 6 -5 4 -12 -5
-18 -13 -9 -13 -10 0 -10 13 0 13 -1 0 -11 -11 -8 -12 -12 -2 -16 6 -2 9 -10
5 -15 -9 -16 -10 -168 0 -168 4 0 2 -10 -4 -22 -7 -13 -12 -24 -11 -25 1 -2
-1 -3 -5 -3 -5 0 -8 4 -8 9 0 5 -3 13 -7 17 -4 4 -3 14 4 21 7 9 8 17 2 21
-11 8 -16 62 -6 62 10 0 8 42 -2 58 -4 7 -2 12 4 12 8 0 8 6 0 20 -6 11 -8 25
-5 30 11 17 16 60 7 60 -10 0 -8 42 2 59 5 7 5 16 0 20 -11 7 -16 61 -6 61 10
0 8 42 -2 58 -4 7 -2 12 4 12 8 0 8 6 0 20 -6 11 -8 25 -5 30 11 17 16 60 7
60 -10 0 -8 42 2 59 5 7 5 16 0 20 -11 7 -16 61 -6 61 10 0 8 42 -2 58 -4 7
-2 12 4 12 8 0 8 6 0 20 -6 11 -8 25 -5 30 11 17 16 60 7 60 -10 0 -8 42 2 59
5 7 5 16 0 20 -13 9 -15 61 -3 61 6 0 7 5 4 10 -9 14 2 43 14 36 4 -3 8 -33 7
-66z m-1165 46 c-7 -8 -8 -17 -3 -20 10 -6 8 -48 -2 -65 -4 -5 -2 -13 4 -16 8
-5 7 -12 -2 -23 -7 -9 -8 -13 -3 -10 12 7 12 -93 0 -112 -5 -7 -4 -11 1 -7 11
6 10 -95 -1 -113 -5 -7 -4 -11 1 -7 10 6 10 -95 0 -111 -3 -6 -2 -13 2 -16 8
-5 9 -29 2 -61 -1 -5 -1 -14 0 -20 1 -5 3 -17 4 -25 1 -11 15 -15 57 -16 36 0
67 -7 83 -17 14 -9 30 -17 36 -17 5 0 10 -4 10 -9 0 -5 9 -13 20 -16 41 -13
18 -24 -52 -23 -150 0 -155 -1 -161 -22 -3 -11 -2 -20 1 -20 10 0 7 -84 -3
-100 -5 -8 -4 -11 2 -7 6 4 8 -4 5 -21 -3 -15 -7 -21 -10 -14 -2 6 -7 10 -12
7 -4 -2 -7 28 -7 68 -1 39 -1 81 -2 92 -1 20 -8 20 -470 18 l-469 -1 -4 29
c-3 16 -1 29 4 29 4 0 7 5 5 12 -1 9 113 12 467 12 l470 1 0 318 c-1 308 0
317 19 317 16 0 17 -3 8 -14z m991 -581 c13 -18 9 -53 -8 -59 -10 -4 -13 -2
-8 6 5 7 3 8 -7 2 -24 -15 -119 -12 -119 3 0 8 -4 12 -9 9 -5 -4 -5 7 1 22 11
27 14 28 77 28 36 0 69 -5 73 -11z m498 -11 c13 -35 -9 -50 -75 -48 -83 2 -87
3 -80 14 3 6 0 10 -7 10 -9 0 -9 3 2 10 8 5 11 10 5 10 -5 0 -3 6 6 13 10 7
44 12 79 12 54 0 64 -4 70 -21z m1140 -37 c0 -4 5 -5 10 -2 6 3 10 1 10 -4 0
-6 5 -11 11 -11 16 0 95 -83 103 -108 4 -12 11 -22 16 -22 11 0 19 -50 9 -51
-41 -6 -64 5 -125 63 -51 49 -98 123 -89 139 7 11 55 8 55 -4z m-3659 -347 c1
-8 1 -18 0 -22 0 -5 4 -8 11 -8 9 0 9 -3 0 -12 -14 -14 -16 -32 -3 -24 5 4 6
-9 1 -29 -4 -19 -6 -36 -3 -39 9 -9 -36 -26 -51 -20 -9 3 -19 18 -22 33 -3 14
-7 31 -9 38 -2 7 0 15 4 17 5 3 6 16 4 29 -6 28 19 56 47 54 11 -1 21 -8 21
-17z m2855 -247 c-1 -21 -5 -43 -10 -49 -12 -12 -44 -16 -51 -5 -2 5 -17 6
-32 4 -64 -9 -98 -9 -105 1 -5 7 -8 7 -8 1 0 -9 -42 -12 -60 -5 -3 1 -9 1 -15
0 -32 -7 -56 -6 -61 2 -3 4 -10 6 -15 2 -17 -10 -59 -12 -65 -2 -3 4 -10 6
-15 2 -17 -10 -59 -12 -65 -3 -3 5 -13 5 -22 1 -19 -9 -59 -8 -69 2 -3 3 -13
0 -21 -7 -13 -10 -14 -9 -7 2 5 9 4 12 -2 8 -18 -11 -72 -17 -77 -8 -3 4 -18
6 -33 4 -64 -9 -98 -9 -105 1 -5 7 -8 7 -8 1 0 -9 -42 -12 -60 -5 -3 1 -9 1
-15 0 -32 -7 -56 -6 -61 2 -3 4 -10 6 -15 2 -17 -10 -99 -12 -105 -3 -3 5 -11
6 -17 2 -19 -12 -37 -12 -37 -1 0 6 -6 5 -15 -2 -12 -10 -15 -10 -15 1 0 9 -3
10 -8 4 -7 -11 -50 -14 -67 -4 -10 5 -21 5 -82 -5 -18 -3 -35 -1 -38 5 -4 5
-11 7 -16 3 -17 -10 -59 -12 -65 -3 -3 5 -13 5 -22 1 -19 -9 -59 -8 -69 2 -3
3 -13 0 -21 -7 -13 -10 -14 -9 -7 2 5 9 4 12 -2 8 -20 -12 -72 -17 -78 -7 -4
6 -12 7 -18 3 -19 -12 -37 -12 -37 -1 0 6 -6 5 -15 -2 -12 -10 -15 -10 -15 1
0 11 -2 11 -9 0 -17 -26 -41 6 -39 50 l1 39 897 0 897 0 -1 -37z"/>
<path d="M668 1495 c-2 -2 -18 -5 -36 -8 -18 -3 -40 -11 -48 -17 -7 -7 -14 -9
-14 -6 0 4 -7 1 -16 -6 -102 -85 -134 -144 -138 -254 -1 -41 0 -71 3 -69 2 3
11 -13 19 -36 15 -47 21 -55 77 -110 48 -47 136 -78 210 -73 68 5 83 8 97 22
7 7 19 12 28 12 18 0 113 84 104 92 -2 3 2 11 11 18 8 7 15 19 15 26 0 8 4 14
9 14 6 0 8 9 6 20 -2 11 -1 20 3 20 11 0 8 102 -2 119 -7 10 -6 12 4 6 10 -6
11 -4 4 6 -5 8 -9 16 -10 19 -6 27 -28 70 -35 70 -5 0 -9 6 -9 14 0 26 -106
103 -155 112 -5 1 -12 3 -15 4 -9 4 -108 8 -112 5z m116 -104 c32 -13 83 -51
70 -51 -5 0 -1 -5 9 -11 9 -6 15 -14 12 -20 -4 -5 0 -9 9 -9 8 0 13 -7 11 -17
-1 -10 1 -22 5 -28 12 -16 9 -95 -4 -95 -6 0 -4 -5 4 -10 10 -6 11 -10 3 -10
-7 0 -13 -7 -13 -15 0 -8 -9 -24 -19 -34 -11 -11 -17 -22 -13 -25 3 -3 -2 -6
-11 -6 -9 0 -17 -3 -17 -8 0 -11 -39 -33 -69 -39 -102 -21 -187 16 -229 99
-29 57 -32 103 -11 161 14 39 89 134 89 113 0 -4 12 -1 26 7 30 16 107 15 148
-2z"/>
<path d="M660 1363 c1 -23 20 -34 56 -31 27 2 39 8 39 18 0 11 -13 16 -47 18
-27 2 -48 -1 -48 -5z"/>
<path d="M807 1317 c-6 -17 24 -77 39 -77 22 0 25 18 10 48 -17 33 -42 48 -49
29z"/>
<path d="M580 1310 c-8 -5 -11 -10 -7 -10 5 0 1 -7 -7 -16 -30 -29 -13 -65 21
-45 10 6 15 11 11 11 -4 0 -1 12 7 27 20 38 7 54 -25 33z"/>
<path d="M715 1300 c-3 -5 -12 -7 -20 -4 -16 7 -61 -21 -70 -44 -11 -26 -14
-82 -4 -82 5 0 9 -7 9 -15 0 -20 53 -46 87 -42 60 7 82 33 89 104 3 24 -2 37
-21 51 -13 11 -23 21 -22 23 1 2 0 3 -2 2 -2 -1 -12 2 -22 7 -11 7 -20 7 -24
0z"/>
<path d="M838 1165 c-7 -9 -17 -21 -23 -28 -18 -22 -14 -44 9 -42 32 4 33 4
34 18 1 6 4 24 8 40 7 30 -7 36 -28 12z"/>
<path d="M562 1161 c-26 -16 28 -84 57 -73 10 4 11 7 3 10 -7 2 -10 8 -7 13 6
8 -24 58 -35 59 -3 0 -11 -4 -18 -9z"/>
<path d="M668 1058 c3 -11 10 -17 18 -14 8 3 14 2 14 -3 0 -14 40 -5 58 14 9
10 11 15 5 11 -7 -4 -13 -3 -13 3 0 6 -20 10 -44 9 -38 0 -43 -3 -38 -20z"/>
<path d="M3389 1496 c-3 -3 -14 -7 -25 -9 -57 -10 -186 -102 -167 -120 3 -4 2
-7 -4 -7 -11 0 -36 -53 -36 -76 0 -8 -3 -14 -7 -14 -12 0 -3 -123 11 -155 7
-16 12 -33 11 -36 -1 -4 19 -30 43 -58 25 -29 45 -49 45 -45 0 4 8 0 18 -9 16
-15 137 -58 144 -52 2 2 25 6 52 9 27 3 56 12 64 18 8 7 17 11 19 8 6 -9 93
54 99 73 3 9 9 17 13 17 4 0 16 19 26 43 9 23 20 49 24 57 14 28 3 134 -19
183 -27 60 -86 120 -142 146 -41 19 -158 37 -169 27z m100 -99 c116 -32 179
-171 124 -276 -21 -40 -31 -51 -80 -91 -34 -27 -135 -30 -184 -5 -80 42 -138
151 -109 205 7 13 7 20 1 20 -17 0 32 81 64 106 17 14 35 28 40 32 6 5 20 8
32 7 12 -1 20 2 18 5 -7 12 47 10 94 -3z"/>
<path d="M3391 1357 c-16 -20 -4 -27 44 -27 46 0 56 5 48 26 -7 18 -77 19 -92
1z"/>
<path d="M3539 1322 c-22 -4 -13 -38 17 -71 21 -22 22 -23 31 -5 13 24 -24 81
-48 76z"/>
<path d="M3312 1311 c-18 -11 -39 -54 -34 -69 7 -22 30 -12 50 22 16 27 18 37
8 45 -6 5 -17 6 -24 2z"/>
<path d="M3401 1303 c-1 -7 -7 -13 -14 -13 -11 0 -39 -34 -43 -52 -1 -5 -2 -9
-4 -10 -7 -10 -6 -38 2 -38 6 0 8 -7 4 -15 -11 -30 47 -67 100 -63 39 2 89 49
80 74 -3 7 -1 16 4 19 13 8 -11 54 -42 81 -18 15 -31 18 -50 13 -17 -4 -29 -3
-32 4 -3 9 -5 8 -5 0z"/>
<path d="M3565 1170 c-11 -5 -16 -9 -12 -9 5 -1 1 -8 -8 -17 -19 -19 -16 -49
5 -49 18 0 56 64 44 75 -5 4 -18 4 -29 0z"/>
<path d="M3283 1162 c-18 -12 32 -83 53 -75 8 3 12 11 9 17 -3 6 -8 19 -11 29
-4 9 -11 17 -16 17 -5 0 -6 5 -3 10 7 12 -15 13 -32 2z"/>
<path d="M3390 1058 c0 -10 6 -18 13 -19 6 0 24 -2 38 -3 28 -2 51 15 41 30
-4 6 -26 10 -49 10 -35 1 -43 -3 -43 -18z"/>
</g>
</svg>
